<?xml version="1.0" encoding="UTF-8" standalone="no"?>
<!-- Generator: Adobe Illustrator 19.0.0, SVG Export Plug-In . SVG Version: 6.00 Build 0)  -->

<svg
   id="Layer_1"
   x="0px"
   y="0px"
   viewBox="0 0 300 300"
   style="enable-background:new 0 0 300 300;"
   xml:space="preserve"><g>
     <path fill="#323638"
       d="m 49.298248,207.21599 21.851131,0.01 18.214542,-27.62203 35.072659,0.24066 -22.08207,76.13497 0,1.80128 c 0,9.61411 7.82256,17.44153 17.43666,17.44153 l 31.67916,0 50.27291,-93.23375 38.85511,1.28593 c 20.11062,0 36.47527,-15.78124 36.47527,-35.16746 0.01,-9.5266 -3.87482,-18.45034 -10.93165,-25.12066 -6.84777,-6.47341 -15.91007,-10.0468 -25.92527,-10.0468 -0.017,0 -0.0267,0 -0.0316,0 l -38.77489,1.29566 -49.93016,-92.594446 -31.73263,-0.0097 c -9.59223,0.02674 -17.39291,7.856586 -17.39291,17.446386 l 0,1.793985 21.90461,75.527275 -35.220936,0.30629 -17.898529,-27.077516 -21.836545,0.0049 c -8.969927,0 -16.26255,7.292623 -16.26255,16.257686 l 0,85.07089 c 0,8.96749 7.285331,16.25525 16.257688,16.25525 z m 9.028268,-91.07757 0.0097,0 17.17899,25.98848 82.350734,-0.71225 -27.40811,-94.480797 5.91675,0 50.21457,93.114647 54.02376,-1.80614 c 3.11395,0 6.00669,1.11577 8.15072,3.13583 1.9447,1.83774 3.01186,4.22243 3.01186,6.7238 0,5.45002 -5.0149,9.87664 -10.75419,9.8815 l -54.09912,-1.78912 -50.55246,93.73208 -5.91675,0 27.59042,-95.13956 -82.236479,-0.57368 -17.480418,26.48681 0,-64.5616 z"
        />
    </g>
</svg>
